<svg viewBox="0 0 256 256" xmlns="http://www.w3.org/2000/svg">
  <circle cx="128" cy="128" r="120" fill="#3a4a3f" opacity="0.1"/>
  <path d="M128,16a112,112,0,0,0,0,224c57.43,0,104-42.77,104-96,0-30.91-17-60.25-47.14-81.11A111.76,111.76,0,0,0,128,16Zm0,208A96,96,0,1,1,224,128,96.11,96.11,0,0,1,128,224Z" fill="#3a4a3f"/>
  <path d="M132,184a8,8,0,0,1-8,8c-35.2,0-56.57-26.47-58.32-28.44a8,8,0,1,1,12.63-9.78C78.86,154.41,96.12,176,124,176A8,8,0,0,1,132,184Z" fill="#3a4a3f"/>
  <path d="M136,152a8,8,0,0,1-8,8c-22.1,0-36.05-19.87-36.35-20.36A8,8,0,1,1,104.34,128,43.13,43.13,0,0,0,128,144,8,8,0,0,1,136,152Z" fill="#3a4a3f"/>
  <path d="M160,104c0,8.28-14.33,24-32,24s-32-15.72-32-24,14.33-8,32-8S160,95.73,160,104Z" fill="#3a4a3f"/>
  <path d="M200,104c0,8.28-14.33,24-32,24s-32-15.72-32-24,14.33-8,32-8S200,95.73,200,104Z" fill="#3a4a3f"/>
</svg>